<svg xmlns="http://www.w3.org/2000/svg" viewBox="0 0 396.33 407.79"><defs><style>.cls-1{fill:#606060;opacity:0.1;}.cls-2{fill:#111f3d;}.cls-3{fill:#1c3367;}.cls-4{fill:#3f6186;}.cls-5{fill:#403631;}.cls-6{fill:#ff8842;}.cls-7{fill:#ffc19c;}.cls-8{fill:#63544d;}.cls-9{fill:#e0783a;}.cls-10{fill:#ff9e66;}.cls-11{fill:#ebe6c6;}</style></defs><title>micro</title><g id="BACKGROUND_1" data-name="BACKGROUND 1"><path class="cls-1" d="M296.16,248a76,76,0,0,1-5.52,11.57c2.16,1,1.87,5.09-.89,5.41-1.12.13-2.25.23-3.37.31a53.47,53.47,0,0,1-13.28,11.06,50.48,50.48,0,0,1-8.38,4c-1.09,3.17-2.34,6.8-3.72,10.77a64.37,64.37,0,0,1,11.5,2c8,2.31,13.82,6.91,11.56,16.8-1.71,7.53-7.61,11.13-14.73,10.62l-.05.06c7.66,2.84,13,7.81,10.16,17.41-2.22,7.46-8.42,10.67-15.56,9.61l-1.08-.16.45.21a.33.33,0,0,1,.21.36c6.68,3.5,10.84,8.81,7.39,17.59-2.24,5.68-6.69,8.54-11.9,8.7l.35.29.8.38a.34.34,0,0,1,.15.5c3.44,3.44,4.81,8,2.16,14.28-3,7.17-9.54,9.67-16.53,7.85A218.11,218.11,0,0,1,222.57,390c-13.5,30-26.9,53.06-35.57,51.3-.52-.11-1-.25-1.51-.4-1.11,6.49-2.92,13-4.26,19.3q-2.91,13.71-5.83,27.43l-2.61,12.16h-3.13q1.26-6.06,2.54-12.11,2.81-13.28,5.62-26.55c1.5-7.07,2.56-14.62,4.48-21.75-3.79-2.48-6.2-6.94-7.5-12.91a55.73,55.73,0,0,1-1.14-9.17q0-.81-.06-1.65a115.66,115.66,0,0,1,.48-13.49c-2.67,1.91-5.16,3.55-7.57,5-7.19,4.31-13.85,7-23.28,10C98,431.66,23.32,457.16,0,465.93V378.45c49-7.69,89.87-21.59,138.4-35.5.54-.16,1.09-.31,1.63-.48l5.18-1.46a.77.77,0,0,1,.48-.16c2.27-1.34,18.3-32.42,21.35-36.3,7.43-9.44,12.85-18.62,20.71-23.59a23.91,23.91,0,0,1,9.46-3.51c.67-.1,1.34-.17,2-.22a32,32,0,0,1,5.24.08c1.37-4.67,2.64-9.09,3.78-13.21a46.78,46.78,0,0,1-5-7.39c-.09-.18-.18-.34-.26-.51A47.55,47.55,0,0,1,198.58,244c-.09-.4-.17-.8-.25-1.21a12.53,12.53,0,0,1-4-3.63,2.14,2.14,0,0,1,.81-3.15,1.91,1.91,0,0,1,1-.14,10.18,10.18,0,0,1,1.42.28c-.07-1.2-.11-2.4-.1-3.59,0,0,.22-3.74.67-7.36A36.88,36.88,0,0,1,199,220c.06-.26.12-.52.2-.77a49.6,49.6,0,0,1,2.55-7.42c.26-.64.54-1.26.84-1.88a49.17,49.17,0,0,1,5.87-9.4c.63-.79,1.3-1.56,2-2.31.22-.25.45-.49.68-.73,19.62-20.57,55.32-20.47,74.64,1.15a45.13,45.13,0,0,1,3.06,3.81A52,52,0,0,1,296.16,248Z" transform="translate(0 -92.01)"/><path class="cls-2" d="M177.32,410.89a64.9,64.9,0,0,1-.91,7.67c-.44,2.64-1,5.29-1.61,7.92-.89,3.83-1.86,7.64-2.64,11.38q-2.92,13.71-5.84,27.43c-2.45,11.51-5,23-7.46,34.51h-2.92c2.39-11.48,4.75-23,7.18-34.46q2.81-13.27,5.62-26.55c1.5-7.07,2.56-14.63,4.47-21.75.13-.46.25-.93.39-1.38q.72-2.58,1.65-5.05C175.65,409.57,177.39,409.63,177.32,410.89Z" transform="translate(0 -92.01)"/><path class="cls-3" d="M202.63,228.59c-11.51,48.54-61.85,182.8-24.71,190.37,23.65,4.81,82.53-175.36,82.53-175.36C247.13,260.18,209.35,251.15,202.63,228.59Z" transform="translate(0 -92.01)"/><path class="cls-4" d="M192.22,363.28c-4.53-.48-8.53-3-12-5.93,2.36-13.58,7-30.49,8.76-44.16,5.43.1,10.91.22,16.13,1.69C202.7,329.61,197,349.15,192.22,363.28Z" transform="translate(0 -92.01)"/><path class="cls-5" d="M288.77,202.46a51,51,0,0,0-12.14-26.17c-19.55-21.87-55.86-21.71-75.32-.41a50,50,0,0,0-11.44,21.78c-1,3.65-1.56,12.5-1.56,12.5,0,1.2,0,2.39.1,3.58a49.17,49.17,0,0,0,.83,6.64,47.92,47.92,0,0,0,4.95,14c.29.55.6,1.08.91,1.61a48.17,48.17,0,0,0,4.09,5.81c11.34,13.8,30.24,21.36,47.94,18.41a48.91,48.91,0,0,0,8.51-2.24,52.69,52.69,0,0,0,21.68-15,54,54,0,0,0,3.85-5.06l.39-.67a76.79,76.79,0,0,0,5.53-11.57A51,51,0,0,0,288.77,202.46Z" transform="translate(0 -92.01)"/><path class="cls-6" d="M238.2,267.61c-4.82-.6-10.28-1-14,2.11-2.79,2.36-3.83,6.15-4.67,9.7-2.2,9.39.5,11.74,9.28,13.82a210.3,210.3,0,0,0,31.26,4.84c7.2.58,13.17-3,14.91-10.61C279.61,267.21,250.22,269.11,238.2,267.61Z" transform="translate(0 -92.01)"/><path class="cls-6" d="M235,293.35c-4.78-.91-10.2-1.69-14.11,1.2-2.93,2.17-4.22,5.88-5.28,9.37-2.81,9.23-.27,11.75,8.36,14.4a209.18,209.18,0,0,0,30.88,6.85c7.14,1.05,13.34-2.15,15.56-9.62C276.29,295.64,246.84,295.62,235,293.35Z" transform="translate(0 -92.01)"/><path class="cls-6" d="M228.37,318c-4.68-1.32-10-2.55-14.15,0-3.11,1.91-4.71,5.5-6.07,8.89-3.58,8.95-1.26,11.68,7.11,15.05a209.84,209.84,0,0,0,30.18,9.45c7,1.66,13.48-1,16.33-8.26C269.37,323.83,240,321.31,228.37,318Z" transform="translate(0 -92.01)"/><path class="cls-6" d="M220.57,341.35c-4.65-1.43-9.94-2.8-14.15-.36-3.16,1.84-4.84,5.38-6.28,8.74-3.81,8.85-1.56,11.64,6.72,15.22a210.87,210.87,0,0,0,29.94,10.22c7,1.83,13.5-.68,16.53-7.85C261.41,348.18,232.15,344.92,220.57,341.35Z" transform="translate(0 -92.01)"/><path class="cls-7" d="M216.48,338.32c-3.2-1.61-5.73-5.51-4.36-9.4a34.7,34.7,0,0,1,1.54-3.67c1-2,2.33-4,4.44-4.72a7.45,7.45,0,0,1,2.9-.22c2,.16,5.9.48,7.23,2.31,2.14,3-2.59,9.87-3.85,12.85C222.75,339.35,219.34,339.75,216.48,338.32Z" transform="translate(0 -92.01)"/><path class="cls-7" d="M207.23,361.07c-3.2-1.6-5.73-5.5-4.35-9.4a35.36,35.36,0,0,1,1.53-3.66c1-2,2.33-4,4.45-4.72a7.44,7.44,0,0,1,2.9-.22c2,.16,5.89.48,7.22,2.31,2.14,3-2.59,9.87-3.84,12.85C213.5,362.11,210.1,362.51,207.23,361.07Z" transform="translate(0 -92.01)"/><path class="cls-8" d="M280.5,236.94c-8.18-.16-16.28,0-24.45-.88a157,157,0,0,1-24.24-4.42,180.09,180.09,0,0,1-23.12-8q-5.43-2.28-10.67-4.94c-3.36-1.7-7.25-4.8-11-5.19a2,2,0,0,0-1.78,3.28c2,3.11,6.71,5,9.86,6.78,3.72,2.06,7.53,4,11.4,5.71a149.51,149.51,0,0,0,24.06,8.34c16,4.15,33.61,6.87,50.14,5C283.82,242.23,283.75,237,280.5,236.94Z" transform="translate(0 -92.01)"/><path class="cls-8" d="M252.87,175a2.6,2.6,0,0,0-1.06-2.31,3.09,3.09,0,0,0-.55-.4,1.49,1.49,0,0,0-.67-.26,2.06,2.06,0,0,0-1.1-.06h-.11l-.68.21a2,2,0,0,0-.84.62,2.65,2.65,0,0,0-.76,1.59,3.29,3.29,0,0,0,.23,1.42,2.75,2.75,0,0,0,1.5,1.42l.1,0,.72.17a2.07,2.07,0,0,0,1.08-.12,3.69,3.69,0,0,0,.67-.3A2.49,2.49,0,0,0,252.87,175Z" transform="translate(0 -92.01)"/><path class="cls-8" d="M236.36,172a2.56,2.56,0,0,0-4.54,1.34,2.6,2.6,0,0,0,.56,1.88,2.55,2.55,0,0,0,4.53-1.34A2.59,2.59,0,0,0,236.36,172Z" transform="translate(0 -92.01)"/><path class="cls-8" d="M217,179.58a3.15,3.15,0,0,0-2.05-1.11,3.06,3.06,0,0,0-3.37,2.72,3.06,3.06,0,0,0,6.09.64A3.11,3.11,0,0,0,217,179.58Z" transform="translate(0 -92.01)"/><path class="cls-8" d="M232.25,189.91a2.67,2.67,0,0,0-2.72-.29l-.08,0a2.59,2.59,0,0,0-1,.84,2.67,2.67,0,0,0-.5,1.29,2.58,2.58,0,0,0,.22,1.37,2.73,2.73,0,0,0,.84,1l.07.06a2.69,2.69,0,0,0,2.72.29,2.75,2.75,0,0,0,1.58-2.19A2.71,2.71,0,0,0,232.25,189.91Z" transform="translate(0 -92.01)"/><path class="cls-8" d="M247.26,185a2.68,2.68,0,0,0-1.92-.46,2.52,2.52,0,0,0-2,1.58,2.61,2.61,0,0,0,.05,2,2.54,2.54,0,1,0,3.82-3.1Z" transform="translate(0 -92.01)"/><path class="cls-8" d="M272.1,182.53a2.65,2.65,0,0,0-1.12-2.35,1.74,1.74,0,0,0-.27-.22,2.83,2.83,0,0,0-1.74-.52,2.94,2.94,0,0,0-1.68.6,2.85,2.85,0,0,0-1,1.88,2.89,2.89,0,0,0,1.76,2.9,2.84,2.84,0,0,0,2.18,0l.25-.14A2.55,2.55,0,0,0,272.1,182.53Z" transform="translate(0 -92.01)"/><path class="cls-8" d="M276.08,194.77c-3.36-.35-3.92,4.87-.55,5.23S279.45,195.12,276.08,194.77Z" transform="translate(0 -92.01)"/><path class="cls-8" d="M260.89,197.39a2.49,2.49,0,0,0-4.41,1.3,2.51,2.51,0,0,0,.54,1.83,2.49,2.49,0,0,0,3.5.37,2.49,2.49,0,0,0,.37-3.5Z" transform="translate(0 -92.01)"/><path class="cls-8" d="M242.85,204c-3.45-.37-4,5-.56,5.36S246.31,204.37,242.85,204Z" transform="translate(0 -92.01)"/><path class="cls-8" d="M209.14,196.74l-.31.06a2,2,0,0,0-1.63,1.73,2,2,0,0,0,1.23,2l.3.12a2.05,2.05,0,1,0,.41-3.94Z" transform="translate(0 -92.01)"/><path class="cls-8" d="M272.71,210a2.11,2.11,0,0,0-.9-.66,2.2,2.2,0,0,0-1.16-.13l-.43,0-.53.16a1.58,1.58,0,0,0-.65.49,2.07,2.07,0,0,0-.59,1.23,2.58,2.58,0,0,0,.18,1.1,2.14,2.14,0,0,0,1.16,1.11l.41.1a2.23,2.23,0,0,0,1.17.13,2.26,2.26,0,0,0,1-.46,2.32,2.32,0,0,0,.8-1.48A2.24,2.24,0,0,0,272.71,210Z" transform="translate(0 -92.01)"/><path class="cls-8" d="M281,222c-2.7-.28-3.15,3.91-.44,4.19S283.72,222.23,281,222Z" transform="translate(0 -92.01)"/><path class="cls-8" d="M254.46,220.64c-3-.31-3.43,4.26-.48,4.57S257.4,221,254.46,220.64Z" transform="translate(0 -92.01)"/><path class="cls-8" d="M224.64,213.29a2.74,2.74,0,0,0-1.93.57,2.63,2.63,0,1,0,1.93-.57Z" transform="translate(0 -92.01)"/><path class="cls-8" d="M200.26,207.15c-3.4-.35-4,4.93-.56,5.29S203.66,207.51,200.26,207.15Z" transform="translate(0 -92.01)"/><path class="cls-9" d="M259.67,297c-6.94-.93-13.92-1.88-20.9-2.44-.66-.05-.82,1.05-.16,1.16,7,1.13,14,1.89,21.06,2.65C260.56,298.47,260.53,297.11,259.67,297Z" transform="translate(0 -92.01)"/><path class="cls-9" d="M254.18,325.22c-5.26-2.69-11.5-4.12-17.25-5.59s-12-3.38-17.9-3.27a.28.28,0,0,0-.08.56c5.58,1.92,11.83,2.49,17.6,4s11.44,3.8,17.28,5.09C254.29,326.07,254.63,325.45,254.18,325.22Z" transform="translate(0 -92.01)"/><path class="cls-9" d="M251,352.54c-6.09-3-12.87-4.91-19.31-7-7-2.29-14.09-4.79-21.32-6.18a.35.35,0,0,0-.2.68c6.65,2.46,13.6,4.2,20.35,6.4s13.35,5,20.17,6.82C251.15,353.37,251.44,352.74,251,352.54Z" transform="translate(0 -92.01)"/><path class="cls-10" d="M238.94,274.69c-6.18-14.52-26.14-16.59-39.62-19.16-22.12-4.23-28.9,10.86-41.36,26.67-3.08,3.93-19.51,35.81-21.44,36.35C84.74,333.14,51.43,345.19,0,353.27V441.7c23.33-8.77,88.94-32.39,134.15-46.89,12.9-4.13,20.61-7.58,31.59-15.52,11.53-8.33,18.37-21.64,23.34-35,6.63-17.79,10.12-37.41,11.39-56.35,3,.32,7.51,1.69,10.54,2,0,9.23-.85,22.77,10.59,25.26C241,319.46,244.27,287.22,238.94,274.69Z" transform="translate(0 -92.01)"/><path class="cls-7" d="M241.5,294.56A42,42,0,0,1,228.74,293c-.5,3-1.21,6.7-1.71,9.7a16.21,16.21,0,0,0-.23,6.16,5.49,5.49,0,0,0,3.94,4.35c2.8.54,5.25-1.93,6.72-4.38A29.21,29.21,0,0,0,241.5,294.56Z" transform="translate(0 -92.01)"/><path class="cls-6" d="M214.85,281.84c-1.85,1-2.75,3.4-3.48,5.26s-1.76,4.65-1,6.69a.34.34,0,0,0,.61.08c1.07-1.66,1.21-4,1.95-5.81s2.36-3.61,2.74-5.57A.58.58,0,0,0,214.85,281.84Z" transform="translate(0 -92.01)"/><path class="cls-6" d="M198.36,275.84c-.5-.68-1.85-.31-1.5.64,1.75,4.79,3.17,8.88,2.42,14.09-.14,1,1.32,1.43,1.52.41C201.75,286,201.45,280,198.36,275.84Z" transform="translate(0 -92.01)"/><path class="cls-6" d="M137.2,318.85a.74.74,0,0,0-1.34.56c1,4.86,2.65,9.3,2.77,14.35.11,4.5-.37,9-.3,13.51,0,.57.94.74,1,.14C140.72,338.35,141.93,327.18,137.2,318.85Z" transform="translate(0 -92.01)"/><path class="cls-11" d="M309.09,244.69s51.41,20.58,69.24,31.68l-22.69,6.1s32.49,24.78,40.69,33.5c0,0-56.3-24.28-65-31.34l14.25-9.14S314.68,248.59,309.09,244.69Z" transform="translate(0 -92.01)"/><path class="cls-11" d="M316.27,169.56s29.56-23.48,42.16-30.28l-4.06,15.5s26.85-12.94,34.78-14.86c0,0-38.3,24.54-45.42,27.3l4.41-12.57S320.46,167.57,316.27,169.56Z" transform="translate(0 -92.01)"/><path class="cls-11" d="M183.29,141.59s-28.7-12.58-37.8-20l15.94-6.34S143.56,98.27,140.15,92c0,0,31.44,20.16,35.53,25.09l-13.17,4.09S180.53,138.92,183.29,141.59Z" transform="translate(0 -92.01)"/><path class="cls-11" d="M160.49,224.67S98.86,226.48,77,231.29l25.24,15.21S57.7,258.7,47.16,264.71c0,0,71.82-9.74,82.7-13.82l-21.6-11.17S153.58,226.62,160.49,224.67Z" transform="translate(0 -92.01)"/></g></svg>